<?xml version="1.0" encoding="UTF-8" standalone="no"?>
<svg
   xmlns:dc="http://purl.org/dc/elements/1.1/"
   xmlns:cc="http://creativecommons.org/ns#"
   xmlns:rdf="http://www.w3.org/1999/02/22-rdf-syntax-ns#"
   xmlns:svg="http://www.w3.org/2000/svg"
   xmlns="http://www.w3.org/2000/svg"
   xmlns:sodipodi="http://sodipodi.sourceforge.net/DTD/sodipodi-0.dtd"
   xmlns:inkscape="http://www.inkscape.org/namespaces/inkscape"
   width="29"
   height="33"
   viewBox="0 0 29 33"
   version="1.1"
   id="svg60"
   sodipodi:docname="ref-lvl-5.svg"
   inkscape:version="0.92.5 (2060ec1f9f, 2020-04-08)">
  <metadata
     id="metadata64">
    <rdf:RDF>
      <cc:Work
         rdf:about="">
        <dc:format>image/svg+xml</dc:format>
        <dc:type
           rdf:resource="http://purl.org/dc/dcmitype/StillImage" />
        <dc:title />
      </cc:Work>
    </rdf:RDF>
  </metadata>
  <sodipodi:namedview
     pagecolor="#ffffff"
     bordercolor="#666666"
     borderopacity="1"
     objecttolerance="10"
     gridtolerance="10"
     guidetolerance="10"
     inkscape:pageopacity="0"
     inkscape:pageshadow="2"
     inkscape:window-width="811"
     inkscape:window-height="739"
     id="namedview62"
     showgrid="false"
     inkscape:zoom="7.1515152"
     inkscape:cx="4.1500123"
     inkscape:cy="12.092004"
     inkscape:window-x="1524"
     inkscape:window-y="103"
     inkscape:window-maximized="0"
     inkscape:current-layer="svg60" />
  <defs
     id="defs32">
    <linearGradient
       id="auk9a"
       x1="4.59"
       x2="4.59"
       y1="25"
       y2="32.85"
       gradientUnits="userSpaceOnUse"
       gradientTransform="matrix(0.69623889,0,0,0.69623889,-0.24788207,10.128548)">
      <stop
         offset="0"
         stop-color="#ff5d0e"
         id="stop2" />
      <stop
         offset="1"
         stop-color="#ffad84"
         id="stop4" />
    </linearGradient>
    <linearGradient
       id="auk9b"
       x1="24.21"
       x2="24.21"
       y1="25"
       y2="32.85"
       gradientUnits="userSpaceOnUse"
       gradientTransform="translate(-4)">
      <stop
         offset="0"
         stop-color="#ff5d0e"
         id="stop7" />
      <stop
         offset="1"
         stop-color="#ffad84"
         id="stop9" />
    </linearGradient>
    <linearGradient
       id="auk9c"
       x1="14.4"
       x2="14.4"
       y1="25"
       y2="32.85"
       gradientUnits="userSpaceOnUse"
       gradientTransform="translate(-2)">
      <stop
         offset="0"
         stop-color="#ff5d0e"
         id="stop12" />
      <stop
         offset="1"
         stop-color="#ffad84"
         id="stop14" />
    </linearGradient>
    <mask
       id="auk9e"
       width="2"
       height="2"
       x="-1"
       y="-1">
      <path
         fill="#fff"
         d="M8.35 2.47h12.09v17.32H8.35z"
         id="path17" />
      <path
         d="M18.816 16.8c0 .753-.612 1.366-1.366 1.366h-2.238V15.83l2.445-2.445a4.402 4.402 0 0 1 1.16 2.98v.436zm-8.837-.436c0-1.147.44-2.194 1.159-2.98l2.445 2.445v2.337h-2.238A1.368 1.368 0 0 1 9.979 16.8zm6.362-3.967l-1.944 1.943-1.943-1.943a4.392 4.392 0 0 1 1.943-.452c.698 0 1.357.163 1.944.452zm-5.054-5.191a3.114 3.114 0 0 1 3.11-3.11 3.114 3.114 0 0 1 3.111 3.11 3.114 3.114 0 0 1-3.11 3.11 3.114 3.114 0 0 1-3.111-3.11zm5.928 3.808a4.735 4.735 0 0 0 1.922-3.808 4.745 4.745 0 0 0-4.74-4.74 4.745 4.745 0 0 0-4.739 4.74c0 1.559.757 2.944 1.922 3.808a6.053 6.053 0 0 0-3.23 5.35v.436a2.998 2.998 0 0 0 2.995 2.995h6.105a2.998 2.998 0 0 0 2.995-2.995v-.436a6.053 6.053 0 0 0-3.23-5.35z"
         id="path19" />
    </mask>
    <filter
       id="auk9d"
       width="44.09"
       height="52.32"
       x="-7.65"
       y="-13.53"
       filterUnits="userSpaceOnUse">
      <feOffset
         dy="3"
         in="SourceGraphic"
         result="FeOffset2016Out"
         id="feOffset22" />
      <feGaussianBlur
         in="FeOffset2016Out"
         result="FeGaussianBlur2017Out"
         stdDeviation="2.4 2.4"
         id="feGaussianBlur24" />
    </filter>
    <linearGradient
       id="auk9f"
       x1="14.4"
       x2="14.4"
       y1="2.47"
       y2="19.79"
       gradientUnits="userSpaceOnUse">
      <stop
         offset="0"
         stop-color="#5a79f3"
         id="stop27" />
      <stop
         offset="1"
         stop-color="#86a0ff"
         id="stop29" />
    </linearGradient>
    <linearGradient
       id="auk9b-7"
       x1="24.209999"
       x2="24.209999"
       y1="25"
       y2="32.849998"
       gradientUnits="userSpaceOnUse"
       gradientTransform="translate(4.4554376,2.3969675)">
      <stop
         offset="0"
         stop-color="#ff5d0e"
         id="stop7-2" />
      <stop
         offset="1"
         stop-color="#ffad84"
         id="stop9-4" />
    </linearGradient>
    <linearGradient
       id="auk9a-5"
       x1="4.5900002"
       x2="4.5900002"
       y1="25"
       y2="32.849998"
       gradientUnits="userSpaceOnUse"
       gradientTransform="matrix(0.58936029,0,0,0.58936029,5.8269234,13.435766)">
      <stop
         offset="0"
         stop-color="#ff5d0e"
         id="stop2-4" />
      <stop
         offset="1"
         stop-color="#ffad84"
         id="stop4-7" />
    </linearGradient>
    <linearGradient
       id="auk9a-6"
       x1="4.5900002"
       x2="4.5900002"
       y1="25"
       y2="32.849998"
       gradientUnits="userSpaceOnUse"
       gradientTransform="matrix(0.58936029,0,0,0.58936029,11.140483,13.435766)">
      <stop
         offset="0"
         stop-color="#ff5d0e"
         id="stop2-1" />
      <stop
         offset="1"
         stop-color="#ffad84"
         id="stop4-0" />
    </linearGradient>
    <linearGradient
       id="auk9a-9"
       x1="4.5900002"
       x2="4.5900002"
       y1="25"
       y2="32.849998"
       gradientUnits="userSpaceOnUse"
       gradientTransform="matrix(0.58936029,0,0,0.58936029,15.89472,13.435766)">
      <stop
         offset="0"
         stop-color="#ff5d0e"
         id="stop2-3" />
      <stop
         offset="1"
         stop-color="#ffad84"
         id="stop4-75" />
    </linearGradient>
    <linearGradient
       id="auk9a-4"
       x1="4.5900002"
       x2="4.5900002"
       y1="25"
       y2="32.849998"
       gradientUnits="userSpaceOnUse"
       gradientTransform="matrix(0.58936029,0,0,0.58936029,21.907432,13.575596)">
      <stop
         offset="0"
         stop-color="#ff5d0e"
         id="stop2-2" />
      <stop
         offset="1"
         stop-color="#ffad84"
         id="stop4-2" />
    </linearGradient>
    <linearGradient
       id="auk9a-8"
       x1="4.5900002"
       x2="4.5900002"
       y1="25"
       y2="32.849998"
       gradientUnits="userSpaceOnUse"
       gradientTransform="matrix(0.69623889,0,0,0.69623889,5.552118,10.128548)">
      <stop
         offset="0"
         stop-color="#ff5d0e"
         id="stop2-41" />
      <stop
         offset="1"
         stop-color="#ffad84"
         id="stop4-4" />
    </linearGradient>
    <linearGradient
       id="auk9a-2"
       x1="4.5900002"
       x2="4.5900002"
       y1="25"
       y2="32.849998"
       gradientUnits="userSpaceOnUse"
       gradientTransform="matrix(0.69623889,0,0,0.69623889,11.352118,10.128548)">
      <stop
         offset="0"
         stop-color="#ff5d0e"
         id="stop2-6" />
      <stop
         offset="1"
         stop-color="#ffad84"
         id="stop4-02" />
    </linearGradient>
    <linearGradient
       id="auk9a-0"
       x1="4.5900002"
       x2="4.5900002"
       y1="25"
       y2="32.849998"
       gradientUnits="userSpaceOnUse"
       gradientTransform="matrix(0.69623889,0,0,0.69623889,17.152117,10.128548)">
      <stop
         offset="0"
         stop-color="#ff5d0e"
         id="stop2-8" />
      <stop
         offset="1"
         stop-color="#ffad84"
         id="stop4-78" />
    </linearGradient>
    <linearGradient
       id="auk9a-7"
       x1="4.5900002"
       x2="4.5900002"
       y1="25"
       y2="32.849998"
       gradientUnits="userSpaceOnUse"
       gradientTransform="matrix(0.69623889,0,0,0.69623889,22.952117,10.128548)">
      <stop
         offset="0"
         stop-color="#ff5d0e"
         id="stop2-9" />
      <stop
         offset="1"
         stop-color="#ffad84"
         id="stop4-70" />
    </linearGradient>
  </defs>
  <path
     d="m 18.816,16.8 c 0,0.753 -0.612,1.366 -1.366,1.366 H 15.212 V 15.83 l 2.445,-2.445 a 4.402,4.402 0 0 1 1.16,2.98 v 0.436 z M 9.979,16.364 c 0,-1.147 0.44,-2.194 1.159,-2.98 l 2.445,2.445 v 2.337 H 11.345 A 1.368,1.368 0 0 1 9.979,16.8 Z m 6.362,-3.967 -1.944,1.943 -1.943,-1.943 a 4.392,4.392 0 0 1 1.943,-0.452 c 0.698,0 1.357,0.163 1.944,0.452 z M 11.287,7.206 a 3.114,3.114 0 0 1 3.11,-3.11 3.114,3.114 0 0 1 3.111,3.11 3.114,3.114 0 0 1 -3.11,3.11 3.114,3.114 0 0 1 -3.111,-3.11 z m 5.928,3.808 a 4.735,4.735 0 0 0 1.922,-3.808 4.745,4.745 0 0 0 -4.74,-4.74 4.745,4.745 0 0 0 -4.739,4.74 c 0,1.559 0.757,2.944 1.922,3.808 a 6.053,6.053 0 0 0 -3.23,5.35 V 16.8 a 2.998,2.998 0 0 0 2.995,2.995 H 17.45 A 2.998,2.998 0 0 0 20.445,16.8 v -0.436 a 6.053,6.053 0 0 0 -3.23,-5.35 z"
     mask="url(#auk9e)"
     id="path46"
     inkscape:connector-curvature="0"
     style="fill:none;filter:url(#auk9d)" />
  <path
     d="m 18.816,16.8 c 0,0.753 -0.612,1.366 -1.366,1.366 H 15.212 V 15.83 l 2.445,-2.445 a 4.402,4.402 0 0 1 1.16,2.98 v 0.436 z M 9.979,16.364 c 0,-1.147 0.44,-2.194 1.159,-2.98 l 2.445,2.445 v 2.337 H 11.345 A 1.368,1.368 0 0 1 9.979,16.8 Z m 6.362,-3.967 -1.944,1.943 -1.943,-1.943 a 4.392,4.392 0 0 1 1.943,-0.452 c 0.698,0 1.357,0.163 1.944,0.452 z M 11.287,7.206 a 3.114,3.114 0 0 1 3.11,-3.11 3.114,3.114 0 0 1 3.111,3.11 3.114,3.114 0 0 1 -3.11,3.11 3.114,3.114 0 0 1 -3.111,-3.11 z m 5.928,3.808 a 4.735,4.735 0 0 0 1.922,-3.808 4.745,4.745 0 0 0 -4.74,-4.74 4.745,4.745 0 0 0 -4.739,4.74 c 0,1.559 0.757,2.944 1.922,3.808 a 6.053,6.053 0 0 0 -3.23,5.35 V 16.8 a 2.998,2.998 0 0 0 2.995,2.995 H 17.45 A 2.998,2.998 0 0 0 20.445,16.8 v -0.436 a 6.053,6.053 0 0 0 -3.23,-5.35 z"
     id="path48"
     inkscape:connector-curvature="0"
     style="fill:#849efe;fill-opacity:0.33000004;filter:url(#auk9d)" />
  <g
     id="g870">
    <path
       d="m 3.6872602,30.460118 a 0.56673847,0.56673847 0 0 0 -0.1629199,0.501291 l 0.074497,0.435149 -0.39059,-0.20539 a 0.56673847,0.56673847 0 0 0 -0.5277491,0 l -0.3898939,0.20539 0.073801,-0.434453 a 0.56673847,0.56673847 0 0 0 -0.162919,-0.501987 l -0.3160925,-0.308434 0.4372381,-0.06266 a 0.56673847,0.56673847 0 0 0 0.4267945,-0.310523 l 0.1949468,-0.39616 0.1956432,0.39616 c 0.082853,0.167096 0.2422912,0.283369 0.4267944,0.309826 l 0.4365418,0.06336 z m 1.0046728,0.603639 0.9259977,-0.90163 a 0.56673847,0.56673847 0 0 0 -0.3147,-0.967772 L 4.0249361,29.009156 3.4526277,27.850614 a 0.56673847,0.56673847 0 0 0 -1.0165089,0 l -0.5716121,1.158542 -1.27899078,0.185895 a 0.56673847,0.56673847 0 0 0 -0.31400375,0.967076 l 0.92530143,0.90163 -0.21861897,1.274116 A 0.56673847,0.56673847 0 0 0 1.801149,32.93455 L 2.9443732,32.333696 4.0882938,32.93455 C 4.1711468,32.97841 4.2616573,33 4.3521683,33 h 0.00139 a 0.56673847,0.56673847 0 0 0 0.5521175,-0.693454 z"
       id="path34"
       inkscape:connector-curvature="0"
       style="fill:url(#auk9a);stroke-width:0.69623893" />
    <path
       d="m 18.816,16.8 c 0,0.753 -0.612,1.366 -1.366,1.366 H 15.212 V 15.83 l 2.445,-2.445 a 4.402,4.402 0 0 1 1.16,2.98 v 0.436 z M 9.979,16.364 c 0,-1.147 0.44,-2.194 1.159,-2.98 l 2.445,2.445 v 2.337 H 11.345 A 1.368,1.368 0 0 1 9.979,16.8 Z m 6.362,-3.967 -1.944,1.943 -1.943,-1.943 a 4.392,4.392 0 0 1 1.943,-0.452 c 0.698,0 1.357,0.163 1.944,0.452 z M 11.287,7.206 a 3.114,3.114 0 0 1 3.11,-3.11 3.114,3.114 0 0 1 3.111,3.11 3.114,3.114 0 0 1 -3.11,3.11 3.114,3.114 0 0 1 -3.111,-3.11 z m 5.928,3.808 a 4.735,4.735 0 0 0 1.922,-3.808 4.745,4.745 0 0 0 -4.74,-4.74 4.745,4.745 0 0 0 -4.739,4.74 c 0,1.559 0.757,2.944 1.922,3.808 a 6.053,6.053 0 0 0 -3.23,5.35 V 16.8 a 2.998,2.998 0 0 0 2.995,2.995 H 17.45 A 2.998,2.998 0 0 0 20.445,16.8 v -0.436 a 6.053,6.053 0 0 0 -3.23,-5.35 z"
       id="path52"
       inkscape:connector-curvature="0"
       style="fill:url(#auk9f)" />
    <path
       d="m 9.4872604,30.460118 a 0.56673847,0.56673847 0 0 0 -0.1629199,0.501291 l 0.074497,0.435149 -0.39059,-0.20539 a 0.56673847,0.56673847 0 0 0 -0.5277491,0 l -0.3898939,0.20539 0.073801,-0.434453 A 0.56673847,0.56673847 0 0 0 8.0014865,30.460118 L 7.685394,30.151684 8.1226321,30.089024 a 0.56673847,0.56673847 0 0 0 0.4267945,-0.310523 l 0.1949468,-0.39616 0.1956432,0.39616 c 0.082853,0.167096 0.2422912,0.283369 0.4267944,0.309826 l 0.4365423,0.06336 z m 1.0046726,0.603639 0.925998,-0.90163 a 0.56673847,0.56673847 0 0 0 -0.3147,-0.967772 L 9.8249363,29.009156 9.2526279,27.850614 a 0.56673847,0.56673847 0 0 0 -1.0165089,0 L 7.6645069,29.009156 6.385516,29.195051 a 0.56673847,0.56673847 0 0 0 -0.3140038,0.967076 l 0.9253016,0.90163 -0.2186191,1.274116 A 0.56673847,0.56673847 0 0 0 7.6011492,32.93455 L 8.7443734,32.333696 9.8882943,32.93455 C 9.9711443,32.97841 10.061657,33 10.152168,33 h 0.0014 a 0.56673847,0.56673847 0 0 0 0.552118,-0.693454 z"
       id="path34-9"
       inkscape:connector-curvature="0"
       style="fill:url(#auk9a-8);stroke-width:0.69623893" />
    <path
       d="m 15.28726,30.460118 a 0.56673847,0.56673847 0 0 0 -0.16292,0.501291 l 0.0745,0.435149 -0.39059,-0.20539 a 0.56673847,0.56673847 0 0 0 -0.527749,0 l -0.389894,0.20539 0.0738,-0.434453 a 0.56673847,0.56673847 0 0 0 -0.162919,-0.501987 l -0.316092,-0.308434 0.437238,-0.06266 a 0.56673847,0.56673847 0 0 0 0.426794,-0.310523 l 0.194947,-0.39616 0.195643,0.39616 c 0.08285,0.167096 0.242291,0.283369 0.426795,0.309826 l 0.436541,0.06336 z m 1.004673,0.603639 0.925998,-0.90163 a 0.56673847,0.56673847 0 0 0 -0.3147,-0.967772 l -1.278295,-0.185199 -0.572308,-1.158542 a 0.56673847,0.56673847 0 0 0 -1.016509,0 l -0.571612,1.158542 -1.278991,0.185895 a 0.56673847,0.56673847 0 0 0 -0.314004,0.967076 l 0.925301,0.90163 -0.218619,1.274116 a 0.56673847,0.56673847 0 0 0 0.822955,0.596677 l 1.143224,-0.600854 1.143921,0.600854 C 15.771144,32.97841 15.861657,33 15.952168,33 h 0.0014 a 0.56673847,0.56673847 0 0 0 0.552118,-0.693454 z"
       id="path34-3"
       inkscape:connector-curvature="0"
       style="fill:url(#auk9a-2);stroke-width:0.69623893" />
    <path
       d="m 21.08726,30.460118 a 0.56673847,0.56673847 0 0 0 -0.16292,0.501291 l 0.0745,0.435149 -0.39059,-0.20539 a 0.56673847,0.56673847 0 0 0 -0.527749,0 l -0.389894,0.20539 0.0738,-0.434453 a 0.56673847,0.56673847 0 0 0 -0.162919,-0.501987 l -0.316093,-0.308434 0.437239,-0.06266 a 0.56673847,0.56673847 0 0 0 0.426794,-0.310523 l 0.194947,-0.39616 0.195643,0.39616 c 0.08285,0.167096 0.242291,0.283369 0.426794,0.309826 l 0.436542,0.06336 z m 1.004673,0.603639 0.925997,-0.90163 a 0.56673847,0.56673847 0 0 0 -0.3147,-0.967772 l -1.278294,-0.185199 -0.572309,-1.158542 a 0.56673847,0.56673847 0 0 0 -1.016509,0 l -0.571612,1.158542 -1.278991,0.185895 a 0.56673847,0.56673847 0 0 0 -0.314003,0.967076 l 0.925301,0.90163 -0.218619,1.274116 a 0.56673847,0.56673847 0 0 0 0.822955,0.596677 l 1.143224,-0.600854 1.14392,0.600854 C 21.571143,32.97841 21.661657,33 21.752168,33 h 0.0014 a 0.56673847,0.56673847 0 0 0 0.552117,-0.693454 z"
       id="path34-6"
       inkscape:connector-curvature="0"
       style="fill:url(#auk9a-0);stroke-width:0.69623893" />
    <path
       d="m 26.88726,30.460118 a 0.56673847,0.56673847 0 0 0 -0.16292,0.501291 l 0.0745,0.435149 -0.39059,-0.20539 a 0.56673847,0.56673847 0 0 0 -0.527749,0 l -0.389894,0.20539 0.0738,-0.434453 a 0.56673847,0.56673847 0 0 0 -0.162919,-0.501987 l -0.316093,-0.308434 0.437238,-0.06266 a 0.56673847,0.56673847 0 0 0 0.426795,-0.310523 l 0.194947,-0.39616 0.195643,0.39616 c 0.08285,0.167096 0.242291,0.283369 0.426794,0.309826 l 0.436542,0.06336 z m 1.004672,0.603639 0.925998,-0.90163 a 0.56673847,0.56673847 0 0 0 -0.3147,-0.967772 l -1.278294,-0.185199 -0.572309,-1.158542 a 0.56673847,0.56673847 0 0 0 -1.016509,0 l -0.571612,1.158542 -1.278991,0.185895 a 0.56673847,0.56673847 0 0 0 -0.314003,0.967076 l 0.925301,0.90163 -0.218619,1.274116 a 0.56673847,0.56673847 0 0 0 0.822954,0.596677 l 1.143225,-0.600854 1.14392,0.600854 C 27.371143,32.97841 27.461657,33 27.552168,33 h 0.0014 a 0.56673847,0.56673847 0 0 0 0.552117,-0.693454 z"
       id="path34-67"
       inkscape:connector-curvature="0"
       style="fill:url(#auk9a-7);stroke-width:0.69623893" />
  </g>
</svg>
