<?xml version="1.0" encoding="UTF-8" standalone="no"?>
<svg
   xmlns:dc="http://purl.org/dc/elements/1.1/"
   xmlns:cc="http://creativecommons.org/ns#"
   xmlns:rdf="http://www.w3.org/1999/02/22-rdf-syntax-ns#"
   xmlns:svg="http://www.w3.org/2000/svg"
   xmlns="http://www.w3.org/2000/svg"
   xmlns:sodipodi="http://sodipodi.sourceforge.net/DTD/sodipodi-0.dtd"
   xmlns:inkscape="http://www.inkscape.org/namespaces/inkscape"
   width="64.898"
   height="55.651"
   viewBox="0 0 64.898 55.651"
   version="1.1"
   id="svg15"
   sodipodi:docname="av-1.svg"
   inkscape:version="0.92.5 (2060ec1f9f, 2020-04-08)">
  <metadata
     id="metadata19">
    <rdf:RDF>
      <cc:Work
         rdf:about="">
        <dc:format>image/svg+xml</dc:format>
        <dc:type
           rdf:resource="http://purl.org/dc/dcmitype/StillImage" />
      </cc:Work>
    </rdf:RDF>
  </metadata>
  <sodipodi:namedview
     pagecolor="#ffffff"
     bordercolor="#666666"
     borderopacity="1"
     objecttolerance="10"
     gridtolerance="10"
     guidetolerance="10"
     inkscape:pageopacity="0"
     inkscape:pageshadow="2"
     inkscape:window-width="1133"
     inkscape:window-height="943"
     id="namedview17"
     showgrid="false"
     inkscape:zoom="11.994552"
     inkscape:cx="43.111124"
     inkscape:cy="25.487061"
     inkscape:window-x="1625"
     inkscape:window-y="13"
     inkscape:window-maximized="0"
     inkscape:current-layer="svg15" />
  <defs
     id="defs7">
    <linearGradient
       id="a"
       x1="24.882883"
       y1="150.12745"
       x2="47.086254"
       y2="100.99809"
       gradientUnits="userSpaceOnUse"
       gradientTransform="matrix(1.0077618,0,0,0.99229796,11.657,-88.528)">
      <stop
         offset="0"
         stop-color="#5a79f3"
         id="stop2" />
      <stop
         offset="1"
         stop-color="#86a0ff"
         id="stop4" />
    </linearGradient>
  </defs>
  <path
     style="opacity:0.22900002;fill:#7c95f6"
     inkscape:connector-curvature="0"
     id="path9"
     d="M 3.8053295,44.992827 C -3.7398795,35.952552 5.2668617,24.633415 7.7410838,15.751734 10.215306,6.8700529 14.915339,0.09474836 24.192421,1.1577301 c 9.277082,1.0629817 8.865831,5.8720492 12.442366,17.9357639 3.576536,12.063714 15.279796,10.817507 9.798963,25.899332 -5.480833,15.081824 -35.083212,9.040276 -42.6284205,10e-7 z" />
  <path
     id="path11"
     style="fill:url(#a)"
     d="m 32.228516,20.679688 c -1.572639,1.89e-4 -2.847467,1.275017 -2.847657,2.847656 v 20.876953 c 5.48e-4,1.035341 0.56292,1.988832 1.46875,2.490234 l 15.158203,8.400391 c 0.422485,0.234423 0.897696,0.357427 1.38086,0.357422 0.509017,2.33e-4 1.008788,-0.136007 1.447266,-0.394532 l 14.5625,-8.601562 c 0.867988,-0.512305 1.400555,-1.445227 1.40039,-2.453125 l 0.09961,-20.675781 c -2.430554,2.125765 -0.388705,5.3441 -5.697266,2.84375 0.01093,3.663576 -0.09752,12.498026 -0.09752,16.20701 L 47.34375,49.521484 35.076172,42.720703 V 26.371094 h 24.125 c 3.560688,3.886799 5.697266,1.309422 5.697266,-2.84375 -1.9e-4,-1.572639 -1.275018,-2.847467 -2.847657,-2.847656 z"
     inkscape:connector-curvature="0"
     sodipodi:nodetypes="ccccccccccccccccccc" />
</svg>
